# xmcd CD database file
#
# Track frame offsets:
#	150
#	11203
#	30918
#	44103
#	68757
#	81354
#	102483
#	117960
#	145587
#	166755
#	191635
#	208927
#
# Disc length: 3025 seconds
#
# Revision: 0
# Processed by: cddbd v1.5.2PL0 Copyright (c) Steve Scherf et al.
# Submitted via: CDex 2.06
#
DISCID=a70bcf0c
DTITLE=Amanda Carr - soon
DYEAR=2007
DGENRE=Jazz
TTITLE0=Close Yor Eyes
TTITLE1=Easy Street
TTITLE2=Let There Be Love
TTITLE3=If You Could See Me Now
TTITLE4=Soon
TTITLE5=Flamingo
TTITLE6=Mais Que Nada
TTITLE7=Funny (Not Much)
TTITLE8=Squeeze Me
TTITLE9=Where Can I Go Without You
TTITLE10=Good Bait
TTITLE11=If You Never Come To Me
EXTD=YEAR: 2007
EXTT0=
EXTT1=
EXTT2=
EXTT3=
EXTT4=
EXTT5=
EXTT6=
EXTT7=
EXTT8=
EXTT9=
EXTT10=
EXTT11=
PLAYORDER=
